#!OML:ASF E:\Steps\Project 1\Capture day 1\Session 2\Subject.ASF
:FULLY-SPECIFIED
:DEGREES
787
root 9.88287 22.09 -14.151 -155.022 1.20008 176.75
lowerback -19.4935 0.123516 -6.4771
upperback 2.73882 2.22839 -2.35955
thorax 14.0146 0.685658 1.7221
lowerneck -2.84716 -1.06569 -1.52473
upperneck 18.3853 -3.13903 3.73249
head 6.10479 -1.79012 1.19948
rclavicle -1.0138e-014 3.65764e-014
rhumerus -32.1079 -6.27185 -84.6866
rradius 48.3492
rwrist -5.03325
rhand -6.60517 -54.4324
rfingers 7.12502
rthumb 19.2505 -83.4996
lclavicle -1.0138e-014 3.65764e-014
lhumerus -32.8167 6.68588 77.2064
lradius 25.4256
lwrist -8.54772
lhand -20.4233 -10.0985
lfingers 7.12502
lthumb 5.93111 19.7985
rfemur -19.7236 8.01619 19.8865
rtibia 20.46
rfoot -385.389 -10.1088
rtoes -40.0427
lfemur -80.5942 -4.23444 -20.2142
ltibia 70.6472
lfoot 349.012 0.31936
ltoes -30.5693
788
root 9.85767 22.1151 -14.2221 -154.797 1.11367 176.812
lowerback -19.4327 0.144275 -6.33402
upperback 2.67358 2.21499 -2.382
thorax 13.9073 0.697146 1.61109
lowerneck -3.09571 -1.13656 -1.4226
upperneck 18.3931 -3.19324 3.56653
head 6.14841 -1.80974 1.12434
rclavicle 9.14409e-015 -3.69739e-014
rhumerus -32.1538 -6.04763 -84.6366
rradius 48.6123
rwrist -4.70719
rhand -6.69767 -54.0745
rfingers 7.12502
rthumb 19.1616 -83.1506
lclavicle 9.14409e-015 -3.69739e-014
lhumerus -32.595 6.44917 77.2784
lradius 25.6426
lwrist -8.15484
lhand -20.2344 -9.97349
lfingers 7.12502
lthumb 6.11352 19.9183
rfemur -19.6465 8.00088 19.8121
rtibia 20.267
rfoot -384.508 -9.9341
rtoes -40.8028
lfemur -80.5589 -4.45072 -20.1681
ltibia 70.7153
lfoot 348.743 0.235732
ltoes -29.4069
789
root 9.83361 22.1466 -14.2958 -154.594 1.14529 176.622
lowerback -19.4043 0.12197 -6.49509
upperback 2.63496 2.24108 -2.46905
thorax 13.8433 0.707677 1.61221
lowerneck -3.29092 -1.26182 -1.60027
upperneck 18.6216 -3.41725 3.79473
head 6.26715 -1.91466 1.20856
rclavicle -7.15625e-015 5.96354e-015
rhumerus -31.9634 -5.81061 -84.5742
rradius 48.6605
rwrist -4.80268
rhand -6.86494 -53.8532
rfingers 7.12502
rthumb 19.0007 -82.9451
lclavicle -7.15625e-015 5.96354e-015
lhumerus -32.4262 6.31633 77.3548
lradius 25.9297
lwrist -7.99738
lhand -20.3663 -10.1106
lfingers 7.12502
lthumb 5.98621 19.7848
rfemur -19.5917 7.93801 19.4201
rtibia 20.1261
rfoot -383.711 -9.92226
rtoes -42.049
lfemur -80.3304 -4.7192 -20.4156
ltibia 70.5541
lfoot 348.492 0.200524
ltoes -29.0696
790
root 9.81967 22.1825 -14.3739 -154.479 1.30689 176.354
lowerback -19.3968 0.0739173 -6.9556
upperback 2.61593 2.30952 -2.53881
thorax 13.8026 0.713246 1.81508
lowerneck -2.82549 -1.29362 -1.78993
upperneck 17.9426 -3.45547 4.27124
head 5.98283 -1.91005 1.39753
rclavicle 8.74653e-015 3.97569e-016
rhumerus -31.9768 -5.63592 -84.5371
rradius 48.8284
rwrist -5.00678
rhand -6.9068 -54.0687
rfingers 7.12502
rthumb 18.9605 -83.1646
lclavicle 8.74653e-015 3.97569e-016
lhumerus -32.3194 6.09015 77.4553
lradius 26.2397
lwrist -7.92402
lhand -20.6994 -10.1195
lfingers 7.12502
lthumb 5.66456 19.7848
rfemur -19.5528 8.08447 18.938
rtibia 20.1919
rfoot -382.592 -9.88966
rtoes -42.54
lfemur -79.8142 -4.83758 -20.7856
ltibia 70.1274
lfoot 348.293 0.249943
ltoes -29.8374
791
root 9.79382 22.2215 -14.4492 -154.365 1.33087 176.231
lowerback -19.285 0.047361 -7.09848
upperback 2.5263 2.30381 -2.57752
thorax 13.6293 0.712344 1.8492
lowerneck -2.5564 -1.35634 -2.29339
upperneck 17.7369 -3.62265 4.99821
head 5.89595 -1.98288 1.70467
rclavicle -8.74653e-015 -3.57812e-015
rhumerus -32.1465 -5.37326 -84.4638
rradius 48.9936
rwrist -5.18335
rhand -6.95372 -54.3056
rfingers 7.12502
rthumb 18.9153 -83.4059
lclavicle -8.74653e-015 -3.57812e-015
lhumerus -32.3414 5.67894 77.5902
lradius 26.5634
lwrist -7.48087
lhand -20.9782 -10.1515
lfingers 7.12502
lthumb 5.39537 19.7599
rfemur -19.4235 8.00731 18.643
rtibia 20.078
rfoot -381.301 -9.57537
rtoes -42.9288
lfemur -79.3421 -5.08381 -21.0013
ltibia 69.7971
lfoot 348.065 0.186519
ltoes -29.922
792
root 9.77047 22.2683 -14.5246 -154.287 1.36267 176.152
lowerback -19.1985 0.0754172 -7.2077
upperback 2.52734 2.37385 -2.64408
thorax 13.5742 0.744032 1.85559
lowerneck -2.70945 -1.40562 -1.87139
upperneck 17.7076 -3.63638 4.61028
head 5.9017 -1.97894 1.50946
rclavicle -1.88845e-014 -8.34896e-015
rhumerus -32.1198 -5.50407 -84.3904
rradius 49.1483
rwrist -5.12175
rhand -6.91225 -54.6069
rfingers 7.12502
rthumb 18.9552 -83.7033
lclavicle -1.88845e-014 -8.34896e-015
lhumerus -32.0225 5.3259 77.7068
lradius 26.6752
lwrist -7.04883
lhand -21.0989 -10.3521
lfingers 7.12502
lthumb 5.27882 19.5621
rfemur -19.2213 8.07235 18.3763
rtibia 19.8272
rfoot -380.42 -9.36843
rtoes -43.6961
lfemur -78.7926 -5.2554 -21.1774
ltibia 69.4169
lfoot 347.817 0.162069
ltoes -29.744
793
root 9.75362 22.3186 -14.6057 -154.171 1.44601 176.07
lowerback -19.2614 0.105207 -7.42563
upperback 2.56517 2.49309 -2.7162
thorax 13.644 0.785456 1.93446
lowerneck -2.80074 -1.55739 -1.83613
upperneck 17.6134 -3.85461 4.76381
head 5.89802 -2.06598 1.53814
rclavicle 1.47101e-014 6.75868e-015
rhumerus -32.0626 -5.78299 -84.3094
rradius 49.2411
rwrist -4.98728
rhand -6.70353 -54.4255
rfingers 7.12502
rthumb 19.1559 -83.5021
lclavicle 1.47101e-014 6.75868e-015
lhumerus -31.5742 5.06705 77.7745
lradius 26.7101
lwrist -6.92122
lhand -21.0897 -10.3262
lfingers 7.12502
lthumb 5.2877 19.5879
rfemur -19.0593 8.19766 18.1039
rtibia 19.5741
rfoot -379.759 -9.17075
rtoes -44.5994
lfemur -78.1387 -5.33674 -21.3382
ltibia 68.8104
lfoot 347.651 0.150269
ltoes -28.9804
794
root 9.73072 22.37 -14.6849 -154.124 1.46241 176.107
lowerback -19.0848 0.153344 -7.46721
upperback 2.48852 2.54465 -2.72101
thorax 13.4435 0.815953 1.96454
lowerneck -3.20191 -1.79375 -2.16161
upperneck 18.1442 -4.2915 5.15347
head 6.16457 -2.27326 1.68003
rclavicle -1.59028e-015 -9.14409e-015
rhumerus -32.2102 -5.82156 -84.1002
rradius 49.2104
rwrist -5.09511
rhand -6.78277 -53.989
rfingers 7.12502
rthumb 19.0797 -83.0731
lclavicle -1.59028e-015 -9.14409e-015
lhumerus -31.526 4.91142 77.8561
lradius 26.9767
lwrist -6.91835
lhand -21.2069 -10.3228
lfingers 7.12502
lthumb 5.17457 19.594
rfemur -18.6436 8.11144 18.0001
rtibia 19.0151
rfoot -378.394 -8.59365
rtoes -43.9276
lfemur -77.4252 -5.46268 -21.3564
ltibia 68.2885
lfoot 347.457 0.0307345
ltoes -26.9209
795
root 9.7038 22.4294 -14.7647 -154.051 1.51186 176.117
lowerback -18.9908 0.210337 -7.50842
upperback 2.42275 2.61865 -2.73235
thorax 13.3035 0.854895 1.99512
lowerneck -3.38636 -1.80751 -1.29561
upperneck 18.8896 -4.26194 3.85802
head 6.39109 -2.30303 1.11834
rclavicle 1.51076e-014 -3.37934e-014
rhumerus -32.3275 -6.07614 -83.8602
rradius 49.2
rwrist -5.0718
rhand -6.99151 -53.8971
rfingers 7.12502
rthumb 18.879 -83.0009
lclavicle 1.51076e-014 -3.37934e-014
lhumerus -31.4191 4.7787 78.0051
lradius 27.2408
lwrist -6.86483
lhand -21.4 -10.1589
lfingers 7.12502
lthumb 4.98813 19.7624
rfemur -17.95 8.02552 17.8323
rtibia 17.9062
rfoot -376.9 -8.19574
rtoes -44.3661
lfemur -76.743 -5.61754 -21.42
ltibia 67.7908
lfoot 347.182 0.00158987
ltoes -25.8608
796
root 9.67767 22.4913 -14.8506 -153.779 1.46167 176.37
lowerback -19.3596 0.273216 -7.28999
upperback 2.52439 2.67752 -2.67084
thorax 13.6395 0.875893 1.9664
lowerneck -2.93576 -2.00066 -1.64138
upperneck 18.1491 -4.58459 4.78432
head 6.11423 -2.41758 1.46054
rclavicle -2.5842e-015 5.1684e-015
rhumerus -31.9765 -6.41551 -83.677
rradius 49.0832
rwrist -4.99908
rhand -6.86416 -53.8203
rfingers 7.12502
rthumb 19.0015 -82.9122
lclavicle -2.5842e-015 5.1684e-015
lhumerus -30.8479 4.80829 78.1586
lradius 27.3465
lwrist -6.97068
lhand -21.3166 -9.75105
lfingers 7.12502
lthumb 5.06867 20.1683
rfemur -18.02 7.98776 17.939
rtibia 17.7712
rfoot -375.44 -7.87623
rtoes -44.6395
lfemur -76.2554 -5.68499 -21.2102
ltibia 67.1795
lfoot 346.951 0.0980176
ltoes -26.223
797
root 9.65322 22.556 -14.9382 -153.492 1.47373 176.571
lowerback -19.6223 0.2872 -7.1802
upperback 2.47516 2.68561 -2.63593
thorax 13.738 0.882113 1.95258
lowerneck -2.84768 -1.72266 -1.69742
upperneck 18.0654 -4.23588 5.04569
head 6.06585 -2.23797 1.57654
rclavicle 9.74045e-015 -2.26615e-014
rhumerus -31.8674 -6.52378 -83.5844
rradius 48.8781
rwrist -5.11588
rhand -6.69313 -53.9516
rfingers 7.12502
rthumb 19.1659 -83.0272
lclavicle 9.74045e-015 -2.26615e-014
lhumerus -30.5964 4.84856 78.1582
lradius 27.4542
lwrist -7.09579
lhand -21.2357 -9.75205
lfingers 7.12502
lthumb 5.14674 20.1655
rfemur -17.9331 8.00961 17.9367
rtibia 17.2328
rfoot -373.912 -7.34899
rtoes -44.7026
lfemur -75.7018 -5.6729 -21.1026
ltibia 66.4363
lfoot 346.793 0.110858
ltoes -25.5715
